<svg version="1.1" id="Layer_1" xmlns="http://www.w3.org/2000/svg" xmlns:xlink="http://www.w3.org/1999/xlink" x="0px" y="0px" viewBox="0 0 100 100" enable-background="new 0 0 100 100" xml:space="preserve" style="margin: initial; display: block; shape-rendering: auto; background: rgba(255, 255, 255, 0);" preserveAspectRatio="xMidYMid" width="179" height="179"><g class="ldl-scale" style="transform-origin: 50% 50%; transform: rotate(288deg) scale(0.8, 0.8);"><g class="ldl-ani" style="transform-box: view-box; opacity: 1; transform-origin: 50px 50px; transform: matrix3d(1, 0, 0, 0, 0, 1, 0, 0, 0, 0, 1, 0, 0, 0, 0, 1); animation: 1.25s linear 0s infinite normal forwards running animate;"><g class="ldl-layer"><g class="ldl-ani"><g><g class="ldl-layer"><g class="ldl-ani" style="transform-box: view-box;"><path pointer-events="all" fill="#FEDC00" d="M45.4,54.2c-1.7-0.6-4.1,0-5.9,1.7c-1.9,1.7-2.8,4-2.8,6c0,0.9-0.4,1.9-1,2.7 l-0.1,0.1c-0.8,1-1.3,2.1-1.6,3c-0.4,1.4-0.9,2.8-2,4l-0.1,0.1c-1.1,1.4-2.3,2.5-3.3,3.9c-1,1.5-1.9,2.8-2.6,4.5l0.1,0.1 c1.4-1.1,2.6-2.3,3.8-3.6c1.2-1.3,2-2.7,3.1-4.1l0.1-0.1c0.9-1.4,2.1-2.2,3.4-2.9c0.9-0.4,1.7-1.3,2.6-2.3l0.1-0.1 c0.6-0.8,1.5-1.4,2.4-1.6c1.5-0.3,3.2-1.4,4.4-2.9c2.3-2.9,2.5-6.5,0.4-8.1C46,54.6,45.7,54.5,45.4,54.2L45.4,54.2z" style="fill: rgb(254, 220, 0);"></path></g></g><g class="ldl-layer"><g class="ldl-ani"><g><g class="ldl-layer"><g class="ldl-ani"><g><g class="ldl-layer"><g class="ldl-ani" style="transform-box: view-box;"><ellipse pointer-events="all" transform="matrix(0.6192 -0.7853 0.7853 0.6192 -42.9819 57.2515)" fill="#FEDC00" cx="37.5" cy="72.9" rx="5.1" ry="0.7" style="fill: rgb(254, 220, 0);"></ellipse></g></g></g></g></g><g class="ldl-layer"><g class="ldl-ani"><g><g class="ldl-layer"><g class="ldl-ani" style="transform-box: view-box;"><ellipse pointer-events="all" transform="matrix(0.6192 -0.7853 0.7853 0.6192 -45.7994 49.1469)" fill="#FEDC00" cx="27.8" cy="71.8" rx="5.1" ry="0.7" style="fill: rgb(254, 220, 0);"></ellipse></g></g></g></g></g><g class="ldl-layer"><g class="ldl-ani"><g><g class="ldl-layer"><g class="ldl-ani" style="transform-box: view-box;"><ellipse pointer-events="all" transform="matrix(0.6192 -0.7853 0.7853 0.6192 -53.1064 53.7155)" fill="#FEDC00" cx="28.8" cy="81.6" rx="4.3" ry="0.7" style="fill: rgb(254, 220, 0);"></ellipse></g></g></g></g></g><g class="ldl-layer"><g class="ldl-ani"><g><g class="ldl-layer"><g class="ldl-ani" style="transform-box: view-box;"><ellipse pointer-events="all" transform="matrix(0.6192 -0.7853 0.7853 0.6192 -56.3609 48.7983)" fill="#FEDC00" cx="22.1" cy="82.5" rx="3.2" ry="0.7" style="fill: rgb(254, 220, 0);"></ellipse></g></g></g></g></g><g class="ldl-layer"><g class="ldl-ani"><g><g class="ldl-layer"><g class="ldl-ani" style="transform-box: view-box;"><ellipse pointer-events="all" transform="matrix(0.6192 -0.7853 0.7853 0.6192 -60.8655 50.1734)" fill="#FEDC00" cx="21.3" cy="87.8" rx="3.2" ry="0.7" style="fill: rgb(254, 220, 0);"></ellipse></g></g></g></g></g><g class="ldl-layer"><g class="ldl-ani"><g><g class="ldl-layer"><g class="ldl-ani" style="transform-box: view-box;"><ellipse pointer-events="all" transform="matrix(0.6192 -0.7853 0.7853 0.6192 -67.775 46.9492)" fill="#FEDC00" cx="14.5" cy="93.3" rx="2.2" ry="0.7" style="fill: rgb(254, 220, 0);"></ellipse></g></g></g></g></g></g></g></g></g></g></g><g class="ldl-layer"><g class="ldl-ani"><g><g class="ldl-layer"><g class="ldl-ani"><g pointer-events="all"><g class="ldl-layer"><g class="ldl-ani"><g><g class="ldl-layer"><g class="ldl-ani" style="transform-box: view-box;"><path fill="#676767" d="M57.8,47.9l-7.6-6L39,52.6l11.2,8.8L57.8,47.9L57.8,47.9z" style="fill: rgb(103, 103, 103);"></path></g></g></g></g></g><g class="ldl-layer"><g class="ldl-ani"><g><g class="ldl-layer"><g class="ldl-ani" style="transform-box: view-box;"><path opacity="0.1" fill="#010101" enable-background="new    " d="M53.9,53.3c-5.2,0.9-10.1,0-13.6-2.3L39,52.4l11.2,8.8 l4.7-8.1C54.6,53.2,54.4,53.3,53.9,53.3L53.9,53.3z" style="fill: rgb(1, 1, 1);"></path></g></g></g></g></g></g></g></g><g class="ldl-layer"><g class="ldl-ani"><g pointer-events="all"><g class="ldl-layer"><g class="ldl-ani"><g><g class="ldl-layer"><g class="ldl-ani" style="transform-box: view-box;"><path fill="#E0E1E0" d="M63.6,13.6L52.3,27.9L40.6,44.1L58.3,58l12.8-14.8l11.6-14.7l0.7-0.9L64.5,12.8 C64.2,13.1,63.8,13.3,63.6,13.6L63.6,13.6z" style="fill: rgb(224, 225, 224);"></path></g></g></g></g></g><g class="ldl-layer"><g class="ldl-ani"><g><g class="ldl-layer"><g class="ldl-ani" style="transform-box: view-box;"><path opacity="0.1" fill="#010101" enable-background="new    " d="M43.8,42.2l-1.2-0.9l-2.1,2.9L58.3,58l12.8-14.8l11.6-14.7 l0.7-0.9L81.3,26C69,41.4,52.6,48.7,43.8,42.2L43.8,42.2z" style="fill: rgb(1, 1, 1);"></path></g></g></g></g></g><g class="ldl-layer"><g class="ldl-ani"><g><g class="ldl-layer"><g class="ldl-ani"><g><g class="ldl-layer"><g class="ldl-ani"><g><g class="ldl-layer"><g class="ldl-ani" style="transform-box: view-box;"><path fill="#FFFFFF" d="M56.1,27.3c-0.6-0.4-0.7-1.3-0.2-1.8c0,0,0,0,0,0l0.5-0.6c0.4-0.6,1.3-0.7,1.8-0.2c0,0,0,0,0,0 c0.6,0.4,0.7,1.3,0.2,1.8c0,0,0,0,0,0L58,27.1C57.5,27.7,56.7,27.8,56.1,27.3C56.1,27.3,56.1,27.3,56.1,27.3z" style="fill: rgba(255, 255, 255, 0);"></path></g></g></g></g></g></g></g></g></g></g></g><g class="ldl-layer"><g class="ldl-ani"><g><g class="ldl-layer"><g class="ldl-ani"><g><g class="ldl-layer"><g class="ldl-ani"><g><g class="ldl-layer"><g class="ldl-ani" style="transform-box: view-box;"><path fill="#FFFFFF" d="M59.1,23.5c-0.6-0.4-0.7-1.3-0.2-1.8c0,0,0,0,0,0l2.9-3.7c0.5-0.6,1.3-0.7,1.9-0.2 c0.6,0.5,0.7,1.3,0.2,1.9L61,23.3C60.5,23.9,59.7,24,59.1,23.5C59.1,23.5,59.1,23.5,59.1,23.5z" style="fill: rgba(255, 255, 255, 0);"></path></g></g></g></g></g></g></g></g></g></g></g></g></g></g><g class="ldl-layer"><g class="ldl-ani"><g pointer-events="all"><g class="ldl-layer"><g class="ldl-ani"><g><g class="ldl-layer"><g class="ldl-ani" style="transform-box: view-box;"><path fill="#E25E65" d="M86.9,11.3c0.4-2.5-0.8-4.9-3-5.9c-1.5-0.8-3.2-0.7-4.7,0l-11.7,5.4c-1.2,0.6-2.1,1.3-3,2.1l18.8,14.8 c0.6-1,1.2-2.2,1.4-3.4C84.5,24.1,86.9,11.3,86.9,11.3z" style="fill: rgb(226, 94, 101);"></path></g></g></g></g></g><g class="ldl-layer"><g class="ldl-ani"><g><g class="ldl-layer"><g class="ldl-ani" style="transform-box: view-box;"><path opacity="0.1" fill="#010101" enable-background="new    " d="M85.8,10.5c-3.7,4.4-8.1,7.7-12.4,9.5l9.6,7.6 c0.6-1,1.2-2.2,1.4-3.4l2.5-12.8c0.1-0.6,0.2-1.4,0-2.1L85.8,10.5L85.8,10.5z" style="fill: rgb(1, 1, 1);"></path></g></g></g></g></g></g></g></g><g class="ldl-layer"><g class="ldl-ani"><g pointer-events="all"><g class="ldl-layer"><g class="ldl-ani"><g><g class="ldl-layer"><g class="ldl-ani" style="transform-box: view-box;"><path fill="#F47E5F" d="M71,43.1L58.3,58l0.7,0.5l5.4,5.5l6.1-6.6c0.7-1.1,1.1-2.3,0.9-3.6C71.5,53.9,71,43.1,71,43.1L71,43.1z" style="fill: rgb(244, 126, 95);"></path></g></g></g></g></g><g class="ldl-layer"><g class="ldl-ani"><g><g class="ldl-layer"><g class="ldl-ani" style="transform-box: view-box;"><path opacity="0.1" fill="#010101" enable-background="new    " d="M71,43.1L58.3,58l0.7,0.5l5.4,5.5l6.1-6.6 c0.7-1.1,1.1-2.3,0.9-3.6C71.5,53.9,71,43.1,71,43.1L71,43.1z" style="fill: rgb(1, 1, 1);"></path></g></g></g></g></g></g></g></g><g class="ldl-layer"><g class="ldl-ani"><g pointer-events="all"><g class="ldl-layer"><g class="ldl-ani"><g><g class="ldl-layer"><g class="ldl-ani" style="transform-box: view-box;"><path fill="#F47E5F" d="M38,32l-5,7.5l6.6,3.9l0.8,0.6l11.6-16.1L41,30C40,30.4,39,31,38,32L38,32z" style="fill: rgb(244, 126, 95);"></path></g></g></g></g></g><g class="ldl-layer"><g class="ldl-ani"><g><g class="ldl-layer"><g class="ldl-ani" style="transform-box: view-box;"><path opacity="0.1" fill="#010101" enable-background="new    " d="M35.9,37.8c-0.3-0.3-0.7-0.5-0.9-0.9l-1.8,2.7l6.6,3.9 l0.8,0.6l4.5-6.2C41.6,39.5,38.2,39.6,35.9,37.8z" style="fill: rgb(1, 1, 1);"></path></g></g></g></g></g></g></g></g><g class="ldl-layer"><g class="ldl-ani" style="transform-box: view-box;"><ellipse pointer-events="all" transform="matrix(0.6192 -0.7853 0.7853 0.6192 1.9474 63.175)" fill="#A1C8D7" cx="66.1" cy="29.6" rx="5.1" ry="5.1" style="fill: rgb(161, 200, 215);"></ellipse></g></g></g></g></g><metadata xmlns:d="https://loading.io/stock/">
<d:name>rocket</d:name>
<d:tags>space shuttle,launch,take off,universe,engine</d:tags>
<d:license>by</d:license>
<d:slug>jq3l</d:slug>
</metadata></g></g><style type="text/css">@keyframes animate { 0.00% {transform: translate(0.00px,0.00px) rotate(0.00deg) scale(1.00, 1.00) skew(0deg, 0.00deg) ;opacity: 1.00;}2.00% {transform: translate(-0.84px,0.87px) rotate(0.00deg) ;}4.00% {transform: translate(-1.32px,0.99px) rotate(0.00deg) ;}6.00% {transform: translate(-1.08px,-0.35px) rotate(0.00deg) ;}8.00% {animation-timing-function: cubic-bezier(0.33,0.17,0.67,0.33);transform: translate(-0.33px,-0.88px) rotate(0.00deg) ;}10.00% {animation-timing-function: cubic-bezier(0.33,0.17,0.67,0.33);transform: translate(NaNpx,NaNpx) rotate(0.00deg) scale(0.00, 0.00) ;}12.00% {transform: translate(1.17px,0.41px) rotate(0.00deg) scale(1.00, 1.00) ;}14.00% {animation-timing-function: cubic-bezier(0.69,0.59,0.36,0.26);transform: translate(1.27px,1.13px) rotate(0.00deg) ;}18.00% {animation-timing-function: cubic-bezier(0.33,0.17,0.67,0.33);transform: translate(-0.25px,-0.44px) rotate(0.00deg) ;}20.00% {animation-timing-function: cubic-bezier(0.33,0.17,0.67,0.33);transform: translate(NaNpx,NaNpx) rotate(0.00deg) scale(0.00, 0.00) ;}22.00% {transform: translate(-1.24px,-0.26px) rotate(0.00deg) scale(1.00, 1.00) ;}24.00% {transform: translate(-0.95px,0.68px) rotate(0.00deg) ;}26.00% {transform: translate(-0.01px,1.06px) rotate(0.00deg) ;}28.00% {animation-timing-function: cubic-bezier(0.33,0.17,0.67,0.33);transform: translate(0.78px,0.22px) rotate(0.00deg) ;}30.00% {animation-timing-function: cubic-bezier(0.33,0.17,0.67,0.33);transform: translate(NaNpx,NaNpx) rotate(0.00deg) scale(0.00, 0.00) ;}32.00% {transform: translate(1.04px,-0.79px) rotate(0.00deg) scale(1.00, 1.00) ;}34.00% {transform: translate(0.42px,-0.11px) rotate(0.00deg) ;}36.00% {transform: translate(-0.60px,1.09px) rotate(0.00deg) ;}38.00% {animation-timing-function: cubic-bezier(0.33,0.17,0.67,0.33);transform: translate(-1.14px,0.77px) rotate(0.00deg) ;}40.00% {animation-timing-function: cubic-bezier(0.33,0.17,0.67,0.33);transform: translate(NaNpx,NaNpx) rotate(0.00deg) scale(0.00, 0.00) ;}42.00% {transform: translate(-0.62px,-0.92px) rotate(0.00deg) scale(1.00, 1.00) ;}44.00% {transform: translate(0.21px,-0.85px) rotate(0.00deg) ;}46.00% {transform: translate(1.08px,0.57px) rotate(0.00deg) ;}48.00% {animation-timing-function: cubic-bezier(0.33,0.17,0.67,0.33);transform: translate(1.25px,0.92px) rotate(0.00deg) ;}50.00% {animation-timing-function: cubic-bezier(0.33,0.17,0.67,0.33);transform: translate(NaNpx,NaNpx) rotate(0.00deg) scale(0.00, 0.00) ;}52.00% {transform: translate(0.06px,-0.57px) rotate(0.00deg) scale(1.00, 1.00) ;}54.00% {transform: translate(-0.78px,-1.15px) rotate(0.00deg) ;}56.00% {transform: translate(-1.32px,-0.25px) rotate(0.00deg) ;}58.00% {animation-timing-function: cubic-bezier(0.33,0.17,0.67,0.33);transform: translate(-1.09px,0.60px) rotate(0.00deg) ;}60.00% {animation-timing-function: cubic-bezier(0.33,0.17,0.67,0.33);transform: translate(NaNpx,NaNpx) rotate(0.00deg) scale(0.00, 0.00) ;}62.00% {transform: translate(0.51px,0.07px) rotate(0.00deg) scale(1.00, 1.00) ;}64.00% {transform: translate(1.19px,-0.86px) rotate(0.00deg) ;}66.00% {transform: translate(1.28px,-0.94px) rotate(0.00deg) ;}68.00% {animation-timing-function: cubic-bezier(0.33,0.17,0.67,0.33);transform: translate(0.69px,-0.03px) rotate(0.00deg) ;}70.00% {animation-timing-function: cubic-bezier(0.33,0.17,0.67,0.33);transform: translate(NaNpx,NaNpx) rotate(0.00deg) scale(0.00, 0.00) ;}72.00% {transform: translate(-0.97px,0.68px) rotate(0.00deg) scale(1.00, 1.00) ;}74.00% {transform: translate(-1.34px,-0.13px) rotate(0.00deg) ;}76.00% {transform: translate(-0.95px,-1.15px) rotate(0.00deg) ;}78.00% {animation-timing-function: cubic-bezier(0.33,0.17,0.67,0.33);transform: translate(-0.15px,-0.65px) rotate(0.00deg) ;}80.00% {animation-timing-function: cubic-bezier(0.33,0.17,0.67,0.33);transform: translate(NaNpx,NaNpx) rotate(0.00deg) scale(0.00, 0.00) ;}82.00% {transform: translate(1.22px,0.93px) rotate(0.00deg) scale(1.00, 1.00) ;}84.00% {transform: translate(1.20px,0.67px) rotate(0.00deg) ;}86.00% {transform: translate(0.43px,-0.76px) rotate(0.00deg) ;}88.00% {animation-timing-function: cubic-bezier(0.33,0.17,0.67,0.33);transform: translate(-0.43px,-0.93px) rotate(0.00deg) ;}90.00% {animation-timing-function: cubic-bezier(0.33,0.17,0.67,0.33);transform: translate(NaNpx,NaNpx) rotate(0.00deg) scale(0.00, 0.00) ;}92.00% {transform: translate(-1.21px,0.71px) rotate(0.00deg) scale(1.00, 1.00) ;}94.00% {transform: translate(-0.79px,1.13px) rotate(0.00deg) ;}96.00% {transform: translate(0.19px,0.01px) rotate(0.00deg) ;}100.00% {transform: translate(NaNpx,NaNpx) rotate(0.00deg) scale(0.00, 0.00) ;} }</style><!-- [ldio] generated by https://loading.io --></svg>