<svg version="1.1" id="圖層_1" xmlns="http://www.w3.org/2000/svg" x="0" y="0" viewBox="0 0 100 100" xml:space="preserve" style="margin: initial; display: block; shape-rendering: auto; background: rgba(255, 255, 255, 0);" preserveAspectRatio="xMidYMid" width="200" height="200"><g class="ldl-scale" style="transform-origin: 50% 50%; transform: rotate(0deg) scale(0.69, 0.69);"><g class="ldl-ani" style="transform-box: view-box; opacity: 1; transform-origin: 50px 50px; transform: matrix3d(0.866, -0.5, 0, 0, 0.5, 0.866, 0, 0, 0, 0, 1, 0, 0, 0, 0, 1); animation: 4.16667s linear 0s infinite normal forwards running animate;"><g class="ldl-layer"><g class="ldl-ani"><g><g class="ldl-layer"><g class="ldl-ani" style="transform-box: view-box;"><path d="M35.4 37c-.7 0-1.3-.4-1.6-1-.4-.9.1-1.9.9-2.2L46.2 29l2-7.7c.2-.9 1.2-1.5 2.1-1.2.9.2 1.5 1.2 1.2 2.1l-2.2 8.5c-.1.5-.5.9-1 1.1L36 36.9c-.2.1-.4.1-.6.1z" fill="#e0e0e0" style="fill: rgb(244, 216, 42);"></path></g></g></g></g></g><g class="ldl-layer"><g class="ldl-ani"><g><g class="ldl-layer"><g class="ldl-ani" style="transform-box: view-box;"><path d="M61.2 30.5l-12.9 5.4 4.8 11.7 1.3 3.1 1.1 2.7-.7.3L27.5 65l1.3 3.1 27.3-11.4.7-.3 2.4 5.8L64.1 74 77 68.6l9.8-4.1L82 52.8l-4.8-11.7-1.3-3.1L71 26.4l-9.8 4.1zm11.4 36.2l-6.7 2.8-3.5-8.5 6.7-2.8 3.5 8.5zm-4.8-11.6l-6.7 2.8-3.5-8.5 6.7-2.8 3.5 8.5zm-4.9-11.7l-6.7 2.8-3.5-8.5 6.7-2.8 3.5 8.5zm19.5 19.3l-6.7 2.8-3.5-8.5 6.7-2.8 3.5 8.5zM77.6 51l-6.7 2.8-3.5-8.5 6.7-2.8 3.5 8.5zm-4.9-11.6L66 42.1l-3.5-8.5 6.7-2.8 3.5 8.6z" fill="#e0e0e0" style="fill: rgb(244, 216, 42);"></path></g></g></g></g></g><g class="ldl-layer"><g class="ldl-ani"><g><g class="ldl-layer"><g class="ldl-ani" style="transform-box: view-box;"><path d="M52 72.4l-15.3 6.4.5 9c.1 1.7 1.9 2.8 3.6 2.1L57 83c1.7-.7 2.2-2.7 1-4l-6-6.6z" fill="#f8b26a" style="fill: rgb(65, 62, 60);"></path></g></g></g></g></g><g class="ldl-layer"><g class="ldl-ani"><g><g class="ldl-layer"><g class="ldl-ani" style="transform-box: view-box;"><path d="M54.5 72.7l-19.3 8c-2.7 1.1-5.9-.2-7-2.9L14.4 44.7c-3.4-8 .4-17.3 8.5-20.7 8.1-3.4 17.3.5 20.7 8.6l13.8 33.1c1.1 2.8-.2 5.9-2.9 7z" fill="#f5e6c8" style="fill: rgb(197, 197, 197);"></path></g></g></g></g></g><g class="ldl-layer"><g class="ldl-ani"><g><g class="ldl-layer"><g class="ldl-ani" style="transform-box: view-box;"><path transform="rotate(-22.557 31.32 44.259)" fill="#849b87" d="M15.5 41h31.7v6.5H15.5z" style="fill: rgb(79, 128, 123);"></path></g></g></g></g></g><g class="ldl-layer"><g class="ldl-ani"><g><g class="ldl-layer"><g class="ldl-ani" style="transform-box: view-box;"><circle transform="rotate(-22.557 37.768 59.785)" cx="37.8" cy="59.8" fill="#a0c8d7" r="6.7" style="fill: rgb(160, 200, 215);"></circle></g></g><g class="ldl-layer"><g class="ldl-ani" style="transform-box: view-box;"><path d="M37.8 67.3c-1 0-1.9-.2-2.9-.6-1.9-.8-3.3-2.2-4.1-4.1-.8-1.9-.8-3.9 0-5.8s2.2-3.3 4.1-4.1c3.8-1.6 8.2.2 9.8 4.1.8 1.9.8 3.9 0 5.8s-2.2 3.3-4.1 4.1c-.9.4-1.9.6-2.8.6zm0-13.3c-.7 0-1.5.1-2.2.4-1.4.6-2.6 1.7-3.2 3.2-.6 1.4-.6 3 0 4.5.6 1.4 1.7 2.6 3.2 3.2 1.4.6 3 .6 4.5 0 1.4-.6 2.6-1.7 3.2-3.2.6-1.4.6-3 0-4.5-1.1-2.3-3.2-3.6-5.5-3.6z" fill="#333" style="fill: rgb(51, 51, 51);"></path></g></g></g></g></g><g class="ldl-layer"><g class="ldl-ani"><g><g class="ldl-layer"><g class="ldl-ani" style="transform-box: view-box;"><path transform="rotate(-22.557 72.455 48.131)" fill="#fff" d="M68.8 43.5H76v9.2h-7.2z" style="fill: rgba(255, 255, 255, 0);"></path></g></g></g></g></g><g class="ldl-layer"><g class="ldl-ani"><g><g class="ldl-layer"><g class="ldl-ani" style="transform-box: view-box;"><path transform="rotate(-22.557 77.296 59.788)" fill="#fff" d="M73.7 55.2h7.2v9.2h-7.2z" style="fill: rgba(255, 255, 255, 0);"></path></g></g></g></g></g><g class="ldl-layer"><g class="ldl-ani"><g><g class="ldl-layer"><g class="ldl-ani" style="transform-box: view-box;"><path transform="rotate(-22.557 67.614 36.475)" fill="#fff" d="M64 31.9h7.2v9.2H64z" style="fill: rgba(255, 255, 255, 0);"></path></g></g></g></g></g><g class="ldl-layer"><g class="ldl-ani"><g><g class="ldl-layer"><g class="ldl-ani" style="transform-box: view-box;"><path transform="rotate(-22.557 62.64 52.208)" fill="#fff" d="M59 47.6h7.2v9.2H59z" style="fill: rgba(255, 255, 255, 0);"></path></g></g></g></g></g><g class="ldl-layer"><g class="ldl-ani"><g><g class="ldl-layer"><g class="ldl-ani" style="transform-box: view-box;"><path transform="rotate(-22.557 57.799 40.551)" fill="#fff" d="M54.2 35.9h7.2v9.2h-7.2z" style="fill: rgba(255, 255, 255, 0);"></path></g></g></g></g></g><g class="ldl-layer"><g class="ldl-ani"><g><g class="ldl-layer"><g class="ldl-ani" style="transform-box: view-box;"><path transform="rotate(-22.557 67.482 63.865)" fill="#fff" d="M63.9 59.3h7.2v9.2h-7.2z" style="fill: rgba(255, 255, 255, 0);"></path></g></g></g></g></g><g class="ldl-layer"><g class="ldl-ani"><g><g class="ldl-layer"><g class="ldl-ani" style="transform-box: view-box;"><path d="M41.2 12.1c-1.6 5.8 1.2 12.1 6.9 14.7 5.7 2.5 12.3.4 15.5-4.7l-22.4-10z" fill="#666" style="fill: rgb(102, 102, 102);"></path></g></g></g></g></g><g class="ldl-layer"><g class="ldl-ani"><g><g class="ldl-layer"><g class="ldl-ani" style="transform-box: view-box;"><path d="M50.4 16.1l4.3-5.8c.4-.6 1.4-.2 1.3.6L54.5 18l-4.1-1.9z" fill="#e0e0e0" style="fill: rgb(244, 216, 42);"></path></g></g></g></g></g><metadata xmlns:d="https://loading.io/stock/"><d:name>satellite</d:name><d:tags>iis,space shuttle,rocket,radar,travel,satellite,astrology</d:tags><d:license>pro</d:license><d:slug>w99o3g</d:slug></metadata></g></g><style type="text/css">@keyframes animate { 0.00% {animation-timing-function: cubic-bezier(0.59,0.02,0.79,0.52);transform: translate(0.00px,0.00px) rotate(-30.00deg) scale(1.00, 1.00) skew(0deg, 0.00deg) ;opacity: 1.00;}26.00% {animation-timing-function: cubic-bezier(0.19,0.49,0.42,0.98);transform: translate(0.00px,0.00px) rotate(2.99deg) ;}50.00% {animation-timing-function: cubic-bezier(0.59,0.02,0.79,0.52);transform: translate(0.00px,0.00px) rotate(30.00deg) ;}76.00% {animation-timing-function: cubic-bezier(0.21,0.48,0.44,0.93);transform: translate(0.00px,0.00px) rotate(-2.99deg) ;}100.00% {animation-timing-function: cubic-bezier(0.21,0.48,0.44,0.93);transform: translate(0.00px,0.00px) rotate(-30.00deg) ;} }</style><!-- [ldio] generated by https://loading.io --></svg>